<svg width="128" height="128" viewBox="0 0 128 128" fill="none" xmlns="http://www.w3.org/2000/svg">
  <defs>
    <linearGradient id="outerRing" x1="18" y1="14" x2="112" y2="118" gradientUnits="userSpaceOnUse">
      <stop stop-color="#18357D" />
      <stop offset="1" stop-color="#2C4A96" />
    </linearGradient>
    <linearGradient id="petalDark" x1="28" y1="34" x2="92" y2="98" gradientUnits="userSpaceOnUse">
      <stop stop-color="#1F73C9" />
      <stop offset="1" stop-color="#104A9D" />
    </linearGradient>
    <linearGradient id="petalLight" x1="32" y1="42" x2="86" y2="92" gradientUnits="userSpaceOnUse">
      <stop stop-color="#B8DDFF" />
      <stop offset="1" stop-color="#66A9E8" />
    </linearGradient>
    <linearGradient id="waveBlue" x1="30" y1="72" x2="104" y2="104" gradientUnits="userSpaceOnUse">
      <stop stop-color="#A9D6FF" />
      <stop offset="1" stop-color="#4A8FDA" />
    </linearGradient>
    <path id="topArc" d="M16 64C16 37.49 37.49 16 64 16C90.51 16 112 37.49 112 64" />
    <path id="bottomArc" d="M112 64C112 90.51 90.51 112 64 112C37.49 112 16 90.51 16 64" />
  </defs>

  <circle cx="64" cy="64" r="62" fill="white" />
  <circle cx="64" cy="64" r="58" fill="url(#outerRing)" />
  <circle cx="64" cy="64" r="54.5" stroke="#D7E4FF" stroke-width="1.6" />

  <text fill="white" font-family="Pretendard, Noto Sans KR, sans-serif" font-size="8.3" font-weight="800" letter-spacing="2.1">
    <textPath href="#topArc" startOffset="50%" text-anchor="middle">DONGSUYEONG MIDDLE SCHOOL</textPath>
  </text>
  <text fill="white" font-family="Pretendard, Noto Sans KR, sans-serif" font-size="10" font-weight="800" letter-spacing="3.3">
    <textPath href="#bottomArc" startOffset="50%" text-anchor="middle">동수영중학교</textPath>
  </text>

  <circle cx="64" cy="64" r="2.4" fill="white" />
  <circle cx="20" cy="64" r="2.1" fill="white" />
  <circle cx="108" cy="64" r="2.1" fill="white" />

  <circle cx="48" cy="44" r="15.5" fill="url(#petalDark)" />
  <circle cx="64" cy="41" r="15.5" fill="url(#petalDark)" />
  <circle cx="80" cy="44" r="15.5" fill="url(#petalDark)" />
  <circle cx="42" cy="60" r="16.2" fill="url(#petalDark)" />
  <circle cx="64" cy="56" r="16.6" fill="url(#petalLight)" />
  <circle cx="86" cy="60" r="16.2" fill="url(#petalDark)" />

  <circle cx="45.5" cy="40" r="2.8" fill="white" />
  <circle cx="39" cy="48" r="2.8" fill="white" />
  <circle cx="57" cy="43.5" r="2.5" fill="white" />
  <path d="M46.4 42.7C49.6 45.8 51.7 49.7 52.7 54.4" stroke="white" stroke-width="0.9" stroke-linecap="round" />
  <path d="M40 50.4C44.2 52.3 47.6 55.8 49.4 60.6" stroke="white" stroke-width="0.9" stroke-linecap="round" />
  <path d="M57 46.1C59.2 49.7 60.1 54 59.7 58.5" stroke="white" stroke-width="0.9" stroke-linecap="round" />

  <path d="M80 40.5L81.5 44.5L85.7 44.8L82.4 47.5L83.3 51.5L80 49.1L76.7 51.5L77.6 47.5L74.3 44.8L78.5 44.5L80 40.5Z" fill="white" />
  <path d="M86.4 50.6L87.3 53L89.8 53.2L87.8 54.8L88.4 57.3L86.4 55.8L84.4 57.3L85 54.8L83 53.2L85.5 53L86.4 50.6Z" fill="white" />

  <path d="M33 71C39.2 59.9 46.4 51.6 55 46L64.5 50.2L60 58.8C52 60.1 43.4 64.3 33 71Z" fill="white" />
  <path d="M62.7 49.8C75.2 49.8 84.7 57.5 84.7 68.1V70.4H71.8V68.3C71.8 63.4 68.4 59.9 63.4 59.9H62.7V49.8Z" fill="white" />

  <path d="M16.5 84.5C30.7 75.6 45.6 73.3 61.1 77.5C73.8 72.7 87.3 73.4 111.5 84.1C96.6 80.7 83.4 81.8 71.8 87.3C56.9 83.2 38.4 82.3 16.5 84.5Z" fill="white" />
  <path d="M23 93.1C36.1 86.3 49 84.7 61.8 88.2C74.3 83.1 87.9 84.4 103.8 92.2C92.1 90.8 81.8 92.5 72.7 97.4C60.2 94 43.7 92.6 23 93.1Z" fill="url(#waveBlue)" />
  <path d="M42.3 75.3C51.2 74.1 58.4 75.4 64 79.2C71.8 74.7 81.6 73.9 93.4 77C84.7 77.1 77 79.8 70.2 85.1C61.3 82.7 52 79.4 42.3 75.3Z" fill="#D9EEFF" />
</svg>
